<?xml version="1.0" encoding="UTF-8" standalone="no"?>
<!-- Generator: Adobe Illustrator 9.0, SVG Export Plug-In  -->

<svg
   xmlns:dc="http://purl.org/dc/elements/1.1/"
   xmlns:cc="http://creativecommons.org/ns#"
   xmlns:rdf="http://www.w3.org/1999/02/22-rdf-syntax-ns#"
   xmlns:svg="http://www.w3.org/2000/svg"
   xmlns="http://www.w3.org/2000/svg"
   xmlns:sodipodi="http://sodipodi.sourceforge.net/DTD/sodipodi-0.dtd"
   xmlns:inkscape="http://www.inkscape.org/namespaces/inkscape"
   width="105.247pt"
   height="103.828pt"
   viewBox="0 0 105.247 103.828"
   xml:space="preserve"
   id="svg2"
   version="1.1"
   inkscape:version="0.47 r22583"
   sodipodi:docname="north_arrow3.svg"><metadata
   id="metadata41"><rdf:RDF><cc:Work
       rdf:about=""><dc:format>image/svg+xml</dc:format><dc:type
         rdf:resource="http://purl.org/dc/dcmitype/StillImage" /></cc:Work></rdf:RDF></metadata><defs
   id="defs39"><inkscape:perspective
   sodipodi:type="inkscape:persp3d"
   inkscape:vp_x="0 : 64.892502 : 1"
   inkscape:vp_y="0 : 1000 : 0"
   inkscape:vp_z="131.55875 : 64.892502 : 1"
   inkscape:persp3d-origin="65.779373 : 43.261668 : 1"
   id="perspective43" />
		
		
		
		
		
		
		
		
		
		
		
		
		
		
		
	</defs><sodipodi:namedview
   pagecolor="#ffffff"
   bordercolor="#666666"
   borderopacity="1"
   objecttolerance="10"
   gridtolerance="10"
   guidetolerance="10"
   inkscape:pageopacity="0"
   inkscape:pageshadow="2"
   inkscape:window-width="878"
   inkscape:window-height="679"
   id="namedview37"
   showgrid="false"
   inkscape:zoom="1.8183919"
   inkscape:cx="31.659663"
   inkscape:cy="42.665009"
   inkscape:window-x="0"
   inkscape:window-y="0"
   inkscape:window-maximized="0"
   inkscape:current-layer="svg2" />
	<path
   id="path5"
   d="M 0.5,51.914 C 0.5,23.519 23.836,0.5 52.624,0.5 c 28.788,0 52.123,23.019 52.123,51.414 0,28.396 -23.336,51.414 -52.123,51.414 C 23.837,103.328 0.5,80.31 0.5,51.914 z"
   style="fill:#010303;fill-rule:nonzero;stroke:#000000;stroke-miterlimit:4" /><path
   id="path7"
   d="m 3.3239492,51.921051 c 0,-26.738 21.9749998,-48.4140002 49.0819998,-48.4140002 27.107,0 49.082001,21.6760002 49.082001,48.4140002 0,26.738 -21.975001,48.413999 -49.082001,48.413999 -27.107,0 -49.0819998,-21.674999 -49.0819998,-48.413999 z"
   style="fill:#ffffff;fill-rule:nonzero;stroke:#000000;stroke-miterlimit:4" /><path
   id="path9"
   d="M 51.965,8.957 60.27,32.311 82.659,21.67 72.017,44.057 95.371,52.363 72.017,60.669 82.659,83.056 60.27,72.413 51.965,95.767 43.66,72.413 21.273,83.055 31.914,60.668 8.56,52.362 31.914,44.056 21.273,21.67 43.66,32.312 51.966,8.958 z"
   style="fill:#ffffff;fill-rule:nonzero;stroke:#000000;stroke-miterlimit:4" /><path
   style="fill-rule:nonzero;stroke:#000000;stroke-miterlimit:4"
   id="path11"
   d="M 60.461,32.271 43.526,32.194 52.095,9.288 60.461,32.27 z" /><path
   style="fill-rule:nonzero;stroke:#000000;stroke-miterlimit:4"
   id="path13"
   d="M 43.664,72.256 60.599,72.332 52.03,95.238 43.664,72.256 z" /><path
   style="fill-rule:nonzero;stroke:#000000;stroke-miterlimit:4"
   id="path15"
   d="M 72.026,60.995 72.102,44.06 95.008,52.628 72.026,60.994 z" /><path
   style="fill-rule:nonzero;stroke:#000000;stroke-miterlimit:4"
   id="path17"
   d="M 32.009,44.144 32.057,61.078 9.088,52.679 32.008,44.144 z" /><path
   id="path19"
   d="m 29.094,52.446 c 0,-12.217 10.127,-22.121 22.622,-22.121 12.492,0 22.621,9.904 22.621,22.121 0,12.217 -10.129,22.121 -22.622,22.121 -12.494,0 -22.622,-9.904 -22.622,-22.121 z"
   style="fill:#ffffff;fill-rule:nonzero;stroke:#000000;stroke-miterlimit:4" /><path
   style="fill-rule:nonzero;stroke:#000000;stroke-miterlimit:4"
   id="path21"
   d="m 52.633,93.597 h -1.335 v -82.47 h 1.335 v 82.47 z" /><path
   id="path23"
   d="m 48.871,28.154 v -8.088 h 1.152 l 2.58,4.092 c 0.588,0.948 1.067,1.788 1.439,2.628 l 0.036,-0.012 c -0.096,-1.08 -0.12,-2.064 -0.12,-3.312 v -3.396 h 0.984 v 8.088 H 53.886 L 51.318,24.05 c -0.563,-0.9 -1.104,-1.824 -1.5,-2.7 l -0.036,0.012 c 0.06,1.02 0.072,1.992 0.072,3.336 v 3.456 H 48.87 z"
   style="fill:#ffffff;fill-rule:nonzero;stroke:none" /><path
   id="path25"
   d="m 49.633,84.125 c 0.468,0.301 1.141,0.528 1.86,0.528 1.067,0 1.691,-0.552 1.691,-1.38 0,-0.744 -0.432,-1.188 -1.523,-1.596 -1.32,-0.48 -2.136,-1.176 -2.136,-2.305 0,-1.26 1.044,-2.195 2.616,-2.195 0.816,0 1.429,0.191 1.776,0.396 l -0.288,0.853 c -0.252,-0.156 -0.792,-0.384 -1.523,-0.384 -1.104,0 -1.524,0.659 -1.524,1.212 0,0.756 0.492,1.128 1.608,1.56 1.367,0.54 2.052,1.188 2.052,2.376 0,1.248 -0.912,2.34 -2.82,2.34 -0.78,0 -1.632,-0.24 -2.064,-0.527 l 0.276,-0.877 z"
   style="fill:#ffffff;fill-rule:nonzero;stroke:none" /><text
   style="fill-rule:nonzero;stroke:#000000;stroke-miterlimit:4"
   id="text27"
   x="13.2876"
   y="69.537102"><tspan
     id="tspan29"
     style="font-size:12px;fill:#ffffff;stroke:none;font-family:Myriad-Roman"
     y="69.537102"
     x="13.2876">W</tspan></text>
<path
   style="fill-rule:nonzero;stroke:#000000;stroke-miterlimit:4"
   id="path31"
   d="m 10.709,53.217 0,-1.335 82.471,-0.041 v 1.335 l -82.47,0.041 z" /><path
   id="path33"
   d="m 82.05,52.724 h -3.795 v 2.916 h 4.246 v 0.876 h -5.525 v -8.088 h 5.307 v 0.876 h -4.027 v 2.556 h 3.795 v 0.864 z"
   style="fill:#ffffff;fill-rule:nonzero;stroke:none" /><path
   id="path35"
   d="m 21.601,56.817 -1.85,-8.088 h 0.996 l 0.865,4.092 c 0.216,1.021 0.411,2.017 0.541,2.796 h 0.021 c 0.119,-0.804 0.346,-1.764 0.595,-2.808 l 0.973,-4.08 h 0.985 l 0.887,4.104 c 0.206,0.973 0.4,1.92 0.508,2.772 h 0.022 c 0.151,-0.888 0.357,-1.788 0.584,-2.796 l 0.963,-4.08 h 0.963 l -2.066,8.088 h -0.984 l -0.919,-4.2 c -0.227,-1.044 -0.379,-1.836 -0.476,-2.651 h -0.021 c -0.119,0.815 -0.292,1.596 -0.563,2.64 l -1.039,4.212 h -0.984 z"
   style="fill:#ffffff;fill-rule:nonzero;stroke:none" />
</svg>