<?xml version="1.0" encoding="UTF-8" standalone="no"?>
<!-- Generator: Adobe Illustrator 19.0.0, SVG Export Plug-In . SVG Version: 6.00 Build 0)  -->

<svg
   xmlns:dc="http://purl.org/dc/elements/1.1/"
   xmlns:cc="http://creativecommons.org/ns#"
   xmlns:rdf="http://www.w3.org/1999/02/22-rdf-syntax-ns#"
   xmlns:svg="http://www.w3.org/2000/svg"
   xmlns="http://www.w3.org/2000/svg"
   xmlns:sodipodi="http://sodipodi.sourceforge.net/DTD/sodipodi-0.dtd"
   xmlns:inkscape="http://www.inkscape.org/namespaces/inkscape"
   version="1.1"
   id="Capa_1"
   x="0px"
   y="0px"
   viewBox="0 0 512 512"
   style="enable-background:new 0 0 512 512;"
   xml:space="preserve"
   sodipodi:docname="ExcelSync.svg"
   inkscape:version="0.92.4 (unknown)"
   inkscape:export-filename="/home/mkuhn/Downloads/ExcelSync.svg.png"
   inkscape:export-xdpi="96"
   inkscape:export-ydpi="96"><metadata
   id="metadata61"><rdf:RDF><cc:Work
       rdf:about=""><dc:format>image/svg+xml</dc:format><dc:type
         rdf:resource="http://purl.org/dc/dcmitype/StillImage" /></cc:Work></rdf:RDF></metadata><defs
   id="defs59" /><sodipodi:namedview
   pagecolor="#ffffff"
   bordercolor="#666666"
   borderopacity="1"
   objecttolerance="10"
   gridtolerance="10"
   guidetolerance="10"
   inkscape:pageopacity="0"
   inkscape:pageshadow="2"
   inkscape:window-width="2560"
   inkscape:window-height="1376"
   id="namedview57"
   showgrid="false"
   inkscape:zoom="0.4609375"
   inkscape:cx="-453.42373"
   inkscape:cy="247.32203"
   inkscape:window-x="0"
   inkscape:window-y="27"
   inkscape:window-maximized="1"
   inkscape:current-layer="g3830" />
<path
   style="fill:#ECEFF1;"
   d="M496,432.011H272c-8.832,0-16-7.168-16-16s0-311.168,0-320s7.168-16,16-16h224  c8.832,0,16,7.168,16,16v320C512,424.843,504.832,432.011,496,432.011z"
   id="path2" />
<g
   id="g20">
	<path
   style="fill:#388E3C;"
   d="M336,176.011h-64c-8.832,0-16-7.168-16-16s7.168-16,16-16h64c8.832,0,16,7.168,16,16   S344.832,176.011,336,176.011z"
   id="path4" />
	<path
   style="fill:#388E3C;"
   d="M336,240.011h-64c-8.832,0-16-7.168-16-16s7.168-16,16-16h64c8.832,0,16,7.168,16,16   S344.832,240.011,336,240.011z"
   id="path6" />
	<path
   style="fill:#388E3C;"
   d="M336,304.011h-64c-8.832,0-16-7.168-16-16s7.168-16,16-16h64c8.832,0,16,7.168,16,16   S344.832,304.011,336,304.011z"
   id="path8" />
	<path
   style="fill:#388E3C;"
   d="M336,368.011h-64c-8.832,0-16-7.168-16-16s7.168-16,16-16h64c8.832,0,16,7.168,16,16   S344.832,368.011,336,368.011z"
   id="path10" />
	<path
   style="fill:#388E3C;"
   d="M432,176.011h-32c-8.832,0-16-7.168-16-16s7.168-16,16-16h32c8.832,0,16,7.168,16,16   S440.832,176.011,432,176.011z"
   id="path12" />
	<path
   style="fill:#388E3C;"
   d="M432,240.011h-32c-8.832,0-16-7.168-16-16s7.168-16,16-16h32c8.832,0,16,7.168,16,16   S440.832,240.011,432,240.011z"
   id="path14" />
	<path
   style="fill:#388E3C;"
   d="M432,304.011h-32c-8.832,0-16-7.168-16-16s7.168-16,16-16h32c8.832,0,16,7.168,16,16   S440.832,304.011,432,304.011z"
   id="path16" />
	<path
   style="fill:#388E3C;"
   d="M432,368.011h-32c-8.832,0-16-7.168-16-16s7.168-16,16-16h32c8.832,0,16,7.168,16,16   S440.832,368.011,432,368.011z"
   id="path18" />
</g>
<path
   style="fill:#2E7D32;"
   d="M282.208,19.691c-3.648-3.04-8.544-4.352-13.152-3.392l-256,48C5.472,65.707,0,72.299,0,80.011v352  c0,7.68,5.472,14.304,13.056,15.712l256,48c0.96,0.192,1.952,0.288,2.944,0.288c3.712,0,7.328-1.28,10.208-3.68  c3.68-3.04,5.792-7.584,5.792-12.32v-448C288,27.243,285.888,22.731,282.208,19.691z"
   id="path22" />
<path
   style="fill:#FAFAFA;"
   d="M220.032,309.483l-50.592-57.824l51.168-65.792c5.44-6.976,4.16-17.024-2.784-22.464  c-6.944-5.44-16.992-4.16-22.464,2.784l-47.392,60.928l-39.936-45.632c-5.856-6.72-15.968-7.328-22.56-1.504  c-6.656,5.824-7.328,15.936-1.504,22.56l44,50.304L83.36,310.187c-5.44,6.976-4.16,17.024,2.784,22.464  c2.944,2.272,6.432,3.36,9.856,3.36c4.768,0,9.472-2.112,12.64-6.176l40.8-52.48l46.528,53.152  c3.168,3.648,7.584,5.504,12.032,5.504c3.744,0,7.488-1.312,10.528-3.968C225.184,326.219,225.856,316.107,220.032,309.483z"
   id="path24" />
<g
   id="g26">
</g>
<g
   id="g28">
</g>
<g
   id="g30">
</g>
<g
   id="g32">
</g>
<g
   id="g34">
</g>
<g
   id="g36">
</g>
<g
   id="g38">
</g>
<g
   id="g40">
</g>
<g
   id="g42">
</g>
<g
   id="g44">
</g>
<g
   id="g46">
</g>
<g
   id="g48">
</g>
<g
   id="g50">
</g>
<g
   id="g52">
</g>
<g
   id="g54">
</g>
<g
   id="g3830"
   transform="matrix(0.37662128,0,0,0.37662128,324.9823,315.13076)"><g
     id="g3772">
	<g
   id="g3770">
		<path
   id="path3766"
   d="m 55.323,203.641 c 15.664,0 29.813,-9.405 35.872,-23.854 25.017,-59.604 83.842,-101.61 152.42,-101.61 37.797,0 72.449,12.955 100.23,34.442 l -21.775,3.371 c -7.438,1.153 -13.224,7.054 -14.232,14.512 -1.01,7.454 3.008,14.686 9.867,17.768 l 119.746,53.872 c 5.249,2.357 11.33,1.904 16.168,-1.205 4.83,-3.114 7.764,-8.458 7.796,-14.208 l 0.621,-131.943 c 0.042,-7.506 -4.851,-14.144 -12.024,-16.332 -7.185,-2.188 -14.947,0.589 -19.104,6.837 L 414.403,70.096 C 370.398,26.778 310.1,0 243.615,0 142.806,0 56.133,61.562 19.167,149.06 c -5.134,12.128 -3.84,26.015 3.429,36.987 7.269,10.976 19.556,17.594 32.727,17.594 z"
   inkscape:connector-curvature="0" />
		<path
   id="path3768"
   d="m 464.635,301.184 c -7.27,-10.977 -19.558,-17.594 -32.728,-17.594 -15.664,0 -29.813,9.405 -35.872,23.854 -25.018,59.604 -83.843,101.61 -152.42,101.61 -37.798,0 -72.45,-12.955 -100.232,-34.442 l 21.776,-3.369 c 7.437,-1.153 13.223,-7.055 14.233,-14.514 1.009,-7.453 -3.008,-14.686 -9.867,-17.768 L 49.779,285.089 c -5.25,-2.356 -11.33,-1.905 -16.169,1.205 -4.829,3.114 -7.764,8.458 -7.795,14.207 l -0.622,131.943 c -0.042,7.506 4.85,14.144 12.024,16.332 7.185,2.188 14.948,-0.59 19.104,-6.839 l 16.505,-24.805 c 44.004,43.32 104.303,70.098 170.788,70.098 100.811,0 187.481,-61.561 224.446,-149.059 5.137,-12.128 3.843,-26.014 -3.425,-36.987 z"
   inkscape:connector-curvature="0" />
	</g>
</g><g
     id="g3774">
</g><g
     id="g3776">
</g><g
     id="g3778">
</g><g
     id="g3780">
</g><g
     id="g3782">
</g><g
     id="g3784">
</g><g
     id="g3786">
</g><g
     id="g3788">
</g><g
     id="g3790">
</g><g
     id="g3792">
</g><g
     id="g3794">
</g><g
     id="g3796">
</g><g
     id="g3798">
</g><g
     id="g3800">
</g><g
     id="g3802">
</g></g></svg>