<?xml version="1.0" encoding="UTF-8" standalone="no"?>
<!-- Created with Inkscape (http://www.inkscape.org/) -->

<svg
   xmlns:svg="http://www.w3.org/2000/svg"
   xmlns="http://www.w3.org/2000/svg"
   version="1.1"
   width="28.334pt"
   height="102.907pt"
   viewBox="0 0 28.334 102.907"
   id="svg2"
   xml:space="preserve"><defs
   id="defs13" />
	<g
   id="Layer_x0020_1"
   style="fill-rule:nonzero;stroke:#000000;stroke-miterlimit:4">
		<path
   d="M 6.869,16 V 0 h 2.589 l 5.799,8.095 c 1.321,1.875 2.4,3.537 3.236,5.199 L 18.574,13.27 C 18.358,11.133 18.304,9.187 18.304,6.718 V 0 h 2.211 V 16 H 18.142 L 12.371,7.881 C 11.103,6.101 9.89,4.273 8.999,2.54 L 8.918,2.564 C 9.053,4.582 9.08,6.504 9.08,9.163 V 16 H 6.869 z"
   id="path5"
   style="stroke:none" />
		<path
   d="M 18.341,102.407 H 9.493 V 41.64 h 8.848 v 60.768 z"
   id="path7" />
		<path
   d="m 14.167,18.267 6.65,11.519 6.65,11.52 H 14.167 0.866 l 6.651,-11.52 6.65,-11.519 z"
   id="path9" />
	</g>
</svg>