<?xml version="1.0" encoding="UTF-8" standalone="no"?>
<!-- Created with Inkscape (http://www.inkscape.org/) -->
<svg
   xmlns:ns="http://creativecommons.org/ns#"
   xmlns:dc="http://purl.org/dc/elements/1.1/"
   xmlns:cc="http://web.resource.org/cc/"
   xmlns:rdf="http://www.w3.org/1999/02/22-rdf-syntax-ns#"
   xmlns:svg="http://www.w3.org/2000/svg"
   xmlns="http://www.w3.org/2000/svg"
   xmlns:sodipodi="http://sodipodi.sourceforge.net/DTD/sodipodi-0.dtd"
   xmlns:inkscape="http://www.inkscape.org/namespaces/inkscape"
   id="svg2403"
   sodipodi:version="0.32"
   inkscape:version="0.44.1"
   width="210.27251"
   height="19.462692"
   xml:space="preserve"
   sodipodi:docname="kanton_4f.svg"
   sodipodi:docbase="/home/bjsvwzie/EigeneDateien"
   version="1.0"><metadata
     id="metadata2408"><rdf:RDF><ns:Work
         rdf:about=""><dc:format>image/svg+xml</dc:format><dc:type
           rdf:resource="http://purl.org/dc/dcmitype/StillImage" /></ns:Work><cc:Work
         rdf:about=""><dc:format>image/svg+xml</dc:format><dc:type
           rdf:resource="http://purl.org/dc/dcmitype/StillImage" /></cc:Work></rdf:RDF></metadata><defs
     id="defs2406"><inkscape:perspective
       sodipodi:type="inkscape:persp3d"
       inkscape:vp_x="0 : 526.18109 : 1"
       inkscape:vp_y="0 : 1000 : 0"
       inkscape:vp_z="744.09448 : 526.18109 : 1"
       inkscape:persp3d-origin="372.04724 : 350.78739 : 1"
       id="perspective2410" /></defs><sodipodi:namedview
     inkscape:window-height="675"
     inkscape:window-width="986"
     inkscape:pageshadow="2"
     inkscape:pageopacity="0.0"
     guidetolerance="10.0"
     gridtolerance="10.0"
     objecttolerance="10.0"
     borderopacity="1.0"
     bordercolor="#666666"
     pagecolor="#ffffff"
     id="base"
     showgrid="false"
     inkscape:zoom="1.2710188"
     inkscape:cx="27.346972"
     inkscape:cy="47.309186"
     inkscape:window-x="66"
     inkscape:window-y="66"
     inkscape:current-layer="g2412" /><g
     id="g2412"
     inkscape:groupmode="layer"
     inkscape:label="Kanton_4f"
     transform="matrix(1.25,0,0,-1.25,-216.7636,700.8375)"><g
       id="g2414"
       transform="matrix(0.1,0,0,0.1,-30.85714,252)"><path
         d="M 2234.77,3085.68 L 2243.44,3085.68 L 2237.55,3059.64 L 2237.72,3059.46 L 2266.76,3085.68 L 2278.2,3085.68 L 2245.61,3056.5 L 2269.61,3026.46 L 2258.7,3026.46 L 2236.51,3054.8 L 2230.44,3026.46 L 2221.68,3026.46 L 2234.77,3085.68"
         style="fill:#231f20;fill-opacity:1;fill-rule:nonzero;stroke:none"
         id="path2416" /><path
         d="M 2346.06,3048.35 L 2322.05,3048.35 L 2340.34,3076.52 L 2346.06,3048.35 z M 2298.3,3026.46 L 2307.93,3026.46 L 2317.63,3041.39 L 2347.36,3041.39 L 2350.57,3026.46 L 2359.5,3026.46 L 2346.15,3085.68 L 2337.57,3085.68 L 2298.3,3026.46"
         style="fill:#231f20;fill-opacity:1;fill-rule:nonzero;stroke:none"
         id="path2418" /><path
         d="M 2405.78,3085.68 L 2417.22,3085.68 L 2434.29,3036.05 L 2434.47,3036.05 L 2445.21,3085.68 L 2453.45,3085.68 L 2440.27,3026.46 L 2429.09,3026.46 L 2412.02,3075.68 L 2411.85,3075.68 L 2401.53,3026.46 L 2393.21,3026.46 L 2405.78,3085.68"
         style="fill:#231f20;fill-opacity:1;fill-rule:nonzero;stroke:none"
         id="path2420" /><path
         d="M 2536.82,3078.21 L 2518.02,3078.21 L 2506.66,3026.46 L 2497.91,3026.46 L 2509.26,3078.21 L 2490.45,3078.21 L 2492.11,3085.68 L 2538.47,3085.68 L 2536.82,3078.21"
         style="fill:#231f20;fill-opacity:1;fill-rule:nonzero;stroke:none"
         id="path2422" /><path
         d="M 2572.27,3050.3 C 2572.27,3065.41 2582.16,3079.24 2596.98,3079.24 C 2607.38,3079.24 2612.58,3072.87 2612.58,3061.5 C 2612.58,3048.61 2603.74,3032.91 2588.83,3032.91 C 2577.91,3032.91 2572.27,3039.79 2572.27,3050.3 z M 2563.09,3050.56 C 2563.09,3034.19 2571.84,3025.45 2588.48,3025.45 C 2610.41,3025.45 2621.77,3043.95 2621.77,3062.7 C 2621.77,3077.79 2612.67,3086.7 2597.23,3086.7 C 2575.05,3086.7 2563.09,3067.36 2563.09,3050.56"
         style="fill:#231f20;fill-opacity:1;fill-rule:nonzero;stroke:none"
         id="path2424" /><path
         d="M 2666.32,3085.68 L 2677.76,3085.68 L 2694.84,3036.05 L 2695,3036.05 L 2705.75,3085.68 L 2713.98,3085.68 L 2700.81,3026.46 L 2689.63,3026.46 L 2672.56,3075.68 L 2672.38,3075.68 L 2662.07,3026.46 L 2653.75,3026.46 L 2666.32,3085.68"
         style="fill:#231f20;fill-opacity:1;fill-rule:nonzero;stroke:none"
         id="path2426" /><path
         d="M 2156.44,2970.75 C 2140.61,2950.4 2115.84,2936.57 2091.01,2936.57 C 2086.59,2936.57 2082.39,2936.94 2078.34,2937.53 L 2070.03,2934 C 2076.52,2932.41 2083.51,2931.52 2091.01,2931.52 C 2120.02,2931.52 2148.97,2949.28 2165.23,2974.49 L 2156.44,2970.75"
         style="fill:black;fill-opacity:1;fill-rule:nonzero;stroke:none"
         id="path2428" /><path
         d="M 2178.18,3026.46 L 2042.68,3026.46 L 2056.01,3085.41 L 2191.53,3085.41 L 2178.18,3026.46"
         style="fill:#ed1c24;fill-opacity:1;fill-rule:nonzero;stroke:none"
         id="path2430" /><path
         d="M 2721.74,2958.27 C 2730.11,2954.64 2739.2,2952.82 2748.29,2952.82 C 2753.55,2952.82 2766.64,2953.36 2766.64,2961.18 C 2766.64,2974.63 2727.56,2967.73 2727.56,2999 C 2727.56,3021.17 2753.38,3030.08 2775.37,3030.08 C 2783.55,3030.08 2795.01,3028.26 2806.82,3024.44 L 2799.92,3003 C 2791.55,3006.45 2783.55,3008.26 2773.73,3008.26 C 2766.46,3008.26 2758.47,3006.63 2758.47,3000.09 C 2758.47,2989.54 2799.37,2990.27 2799.37,2966.46 C 2799.37,2943 2779.55,2931.37 2755.01,2931.01 C 2740.65,2930.82 2725.38,2933 2715.2,2935.91 L 2721.74,2958.27"
         style="fill:#231f20;fill-opacity:1;fill-rule:nonzero;stroke:none"
         id="path2432" /><path
         d="M 2902.81,2988.09 C 2902.81,2966.63 2893.18,2953.91 2877.91,2953.91 C 2866.82,2953.73 2860.09,2962.27 2860.09,2975 C 2860.09,2990.09 2869.91,3007.18 2885.72,3007.18 C 2898.45,3007.18 2902.81,2997.9 2902.81,2988.09 z M 2936.63,2987.73 C 2936.63,3011.54 2919.54,3030.08 2887.36,3030.08 C 2850.27,3030.08 2826.28,3007.54 2826.28,2974.27 C 2826.28,2950.46 2840.46,2931.01 2875.54,2931.01 C 2911,2931.01 2936.63,2948.27 2936.63,2987.73"
         style="fill:#231f20;fill-opacity:1;fill-rule:nonzero;stroke:none"
         id="path2434" /><path
         d="M 2979.35,3069.53 L 3012.44,3069.53 L 2984.07,2933.18 L 2950.99,2933.18 L 2979.35,3069.53"
         style="fill:#231f20;fill-opacity:1;fill-rule:nonzero;stroke:none"
         id="path2436" /><path
         d="M 3095.52,2988.09 C 3095.52,2966.63 3085.88,2953.91 3070.61,2953.91 C 3059.52,2953.73 3052.79,2962.27 3052.79,2975 C 3052.79,2990.09 3062.62,3007.18 3078.43,3007.18 C 3091.15,3007.18 3095.52,2997.9 3095.52,2988.09 z M 3129.34,2987.73 C 3129.34,3011.54 3112.25,3030.08 3080.07,3030.08 C 3042.98,3030.08 3018.98,3007.54 3018.98,2974.27 C 3018.98,2950.46 3033.16,2931.01 3068.25,2931.01 C 3103.7,2931.01 3129.34,2948.27 3129.34,2987.73"
         style="fill:#231f20;fill-opacity:1;fill-rule:nonzero;stroke:none"
         id="path2438" /><path
         d="M 3154.05,3027.9 L 3172.78,3027.9 L 3177.32,3048.26 L 3211.86,3057.54 L 3205.32,3027.9 L 3227.87,3027.9 L 3223.87,3004.99 L 3200.05,3004.99 L 3194.41,2978.63 C 3192.96,2971.54 3191.69,2966.82 3191.69,2962.27 C 3191.69,2955.91 3195.87,2951.73 3202.41,2951.73 C 3205.87,2951.73 3209.5,2953.18 3212.96,2954.45 L 3209.32,2932.82 C 3202.41,2931.73 3195.51,2931.01 3188.96,2931.01 C 3172.23,2931.01 3158.96,2939.18 3158.96,2959 C 3158.96,2963.73 3159.69,2968.46 3161.88,2978.45 L 3167.51,3004.99 L 3150.06,3004.99 L 3154.05,3027.9"
         style="fill:#231f20;fill-opacity:1;fill-rule:nonzero;stroke:none"
         id="path2440" /><path
         d="M 3271.5,3069.53 L 3304.58,3069.53 L 3292.95,3014.08 L 3293.31,3014.08 C 3300.04,3022.99 3310.95,3030.08 3326.22,3030.08 C 3345.3,3030.08 3355.66,3015.9 3355.66,2997.36 C 3355.66,2991 3355.13,2987.36 3353.12,2977.36 L 3344.39,2933.18 L 3310.59,2933.18 L 3319.67,2977.54 C 3320.59,2982.27 3321.86,2986.99 3321.86,2991.9 C 3321.86,2997.54 3318.22,3003.18 3309.13,3002.81 C 3295.31,3002.81 3287.13,2990.81 3284.77,2976.82 L 3275.5,2933.18 L 3242.77,2933.18 L 3271.5,3069.53"
         style="fill:#231f20;fill-opacity:1;fill-rule:nonzero;stroke:none"
         id="path2442" /><path
         d="M 3481.65,2957.91 C 3480.02,2949.73 3478.56,2941.73 3477.66,2933.18 L 3447.3,2933.18 L 3449.84,2948.63 L 3449.47,2948.63 C 3440.02,2938.1 3430.21,2931.01 3412.93,2931.01 C 3393.85,2931.01 3383.48,2945.19 3383.48,2963.73 C 3383.48,2970.09 3384.02,2973.72 3386.02,2983.72 L 3394.76,3027.9 L 3428.56,3027.9 L 3419.48,2983.55 C 3418.57,2978.82 3417.3,2974.09 3417.3,2969.18 C 3417.3,2963.55 3420.94,2957.91 3430.02,2958.27 C 3443.84,2958.27 3452.02,2970.27 3454.39,2984.27 L 3463.65,3027.9 L 3496.38,3027.9 L 3481.65,2957.91"
         style="fill:#231f20;fill-opacity:1;fill-rule:nonzero;stroke:none"
         id="path2444" /><path
         d="M 3565.28,3027.9 L 3561.64,3008.45 L 3562.01,3008.45 C 3567.27,3019.54 3577.82,3030.08 3591.28,3030.08 C 3595.64,3030.08 3600.73,3029.54 3605.1,3027.71 L 3597.64,2998.81 C 3593.46,3002.09 3588.73,3002.81 3582.55,3002.81 C 3568.73,3002.81 3560.56,2990.81 3558.19,2976.82 L 3548.92,2933.18 L 3516.19,2933.18 L 3530.92,3003.18 C 3532.56,3011.36 3534.02,3019.36 3534.92,3027.9 L 3565.28,3027.9"
         style="fill:#231f20;fill-opacity:1;fill-rule:nonzero;stroke:none"
         id="path2446" /><path
         d="M 3626.69,3003.18 C 3628.33,3011.36 3629.79,3019.36 3630.69,3027.9 L 3661.05,3027.9 L 3658.51,3012.45 L 3658.87,3012.45 C 3668.32,3022.99 3678.14,3030.08 3695.41,3030.08 C 3714.5,3030.08 3724.86,3015.9 3724.86,2997.36 C 3724.86,2991 3724.32,2987.36 3722.31,2977.36 L 3713.59,2933.18 L 3679.77,2933.18 L 3688.87,2977.54 C 3689.77,2982.27 3691.05,2986.99 3691.05,2991.9 C 3691.05,2997.54 3687.41,3003.18 3678.32,3002.81 C 3664.51,3002.81 3656.33,2990.81 3653.96,2976.82 L 3644.69,2933.18 L 3611.96,2933.18 L 3626.69,3003.18"
         style="fill:#231f20;fill-opacity:1;fill-rule:nonzero;stroke:none"
         id="path2448" /></g></g></svg>